Coordinates
version=1
nRows=24
nColumns=24
inDegrees=yes

Units are S.I. units (second, meters, Newtons, ...)
Angles are in degrees.

endheader
time	pelvis_tilt	pelvis_list	pelvis_rotation	pelvis_tx	pelvis_ty	pelvis_tz	hip_flexion_r	hip_adduction_r	hip_rotation_r	knee_angle_r	ankle_angle_r	subtalar_angle_r	mtp_angle_r	hip_flexion_l	hip_adduction_l	hip_rotation_l	knee_angle_l	ankle_angle_l	subtalar_angle_l	mtp_angle_l	lumbar_extension	lumbar_bending	lumbar_rotation
      4.19000000	    -16.49274977	     -0.46140338	      4.34181371	     -0.35005654	     -0.02375245	      0.01402031	     38.13474622	     -0.19522513	     -8.29034376	     -5.38638221	     -8.52231130	      3.04767780	     15.19606369	      1.14685562	      3.90906120	     -3.84094887	    -11.54539288	      0.91247647	     16.57775434	     15.23735937	     13.16243782	     -0.72676953	     -7.90704943
      4.19500000	    -16.47614108	     -0.42253380	      4.45866049	     -0.34400308	     -0.02452489	      0.01380170	     38.17636250	     -0.26453741	     -8.55111151	     -6.04834578	     -8.50830562	      2.81596791	     15.17053025	      0.97715263	      3.87295724	     -3.77145448	    -11.92703313	      0.75330177	     16.89503993	     15.41876316	     13.16994534	     -0.72963370	     -7.96381066
      4.20000000	    -16.46247719	     -0.43954464	      4.59517750	     -0.33779939	     -0.02527534	      0.01353317	     38.16583117	     -0.29199723	     -8.82049306	     -6.65641804	     -8.50666826	      2.60500856	     15.12257517	      0.82743030	      3.76835882	     -3.75872302	    -12.33804569	      0.58880278	     17.30599795	     15.67881212	     13.20354561	     -0.67633703	     -8.06419365
      4.20500000	    -16.42968259	     -0.48544290	      4.72540468	     -0.33150852	     -0.02597654	      0.01327462	     38.08297270	     -0.28130975	     -9.04610684	     -7.19421360	     -8.53777568	      2.43410200	     15.05674838	      0.66993178	      3.62207006	     -3.79781188	    -12.76830713	      0.39465748	     17.76872168	     15.99678725	     13.22904590	     -0.58650216	     -8.16308415
      4.21000000	    -16.37115606	     -0.58154761	      4.83324488	     -0.32509471	     -0.02661303	      0.01302844	     37.91814995	     -0.20022754	     -9.21617005	     -7.64295675	     -8.63010545	      2.28770691	     14.96719487	      0.49369893	      3.41072646	     -3.90916744	    -13.20962402	      0.16597021	     18.25870951	     16.40350535	     13.24466713	     -0.43484090	     -8.23714076
      4.21500000	    -16.33940820	     -0.65554224	      4.98242996	     -0.31873845	     -0.02720105	      0.01274969	     37.74417861	     -0.15958561	     -9.33331525	     -8.01175760	     -8.82047452	      2.14379365	     14.90594090	      0.37459244	      3.22881367	     -3.92420554	    -13.69728607	     -0.10504154	     18.68781466	     16.66603356	     13.27866278	     -0.32345648	     -8.35606626
      4.22000000	    -16.26609995	     -0.83265988	      5.07645146	     -0.31223227	     -0.02767202	      0.01251834	     37.45902482	      0.02415744	     -9.35655560	     -8.22986106	     -9.18704046	      1.99506828	     14.83040768	      0.22520155	      2.90755874	     -4.10042720	    -14.19455294	     -0.39239295	     19.30780467	     17.15278442	     13.29545603	     -0.08471891	     -8.45544910
      4.22500000	    -16.24204745	     -1.03661374	      5.19874462	     -0.30573981	     -0.02811422	      0.01224076	     37.20205263	      0.21675532	     -9.35983790	     -8.37273843	     -9.66737500	      1.82032157	     14.75727974	      0.16559208	      2.56790542	     -4.21126021	    -14.74998222	     -0.71399837	     19.79386021	     17.51150933	     13.36819036	      0.16906236	     -8.58012342
      4.23000000	    -16.20403428	     -1.28753098	      5.29989435	     -0.29921238	     -0.02844341	      0.01199324	     36.89332104	      0.47783060	     -9.29281175	     -8.40673095	    -10.30779309	      1.56061681	     14.66770775	      0.12135411	      2.15846757	     -4.41514666	    -15.34376615	     -1.08212381	     20.40377448	     17.94599624	     13.43524929	      0.48040748	     -8.70133075
      4.23500000	    -16.11157246	     -1.54527232	      5.37131449	     -0.29272783	     -0.02859996	      0.01186713	     36.50756283	      0.78604593	     -9.08278482	     -8.36552025	    -11.10001480	      1.11535011	     14.54771578	      0.04489689	      1.71283756	     -4.77689374	    -15.95345786	     -1.57856315	     21.08983956	     18.52377374	     13.43542392	      0.79462155	     -8.80215701
      4.24000000	    -16.09972823	     -1.88630349	      5.46333320	     -0.28618524	     -0.02873325	      0.01162068	     36.19162337	      1.14240169	     -8.92075669	     -8.27383505	    -11.97979338	      0.66805539	     14.33419449	      0.09813053	      1.18874786	     -5.03049141	    -16.63290989	     -2.07330013	     21.72108710	     18.98605836	     13.54706038	      1.19682506	     -8.94859293
      4.24500000	    -16.06596670	     -2.26047781	      5.51654756	     -0.27964053	     -0.02876706	      0.01141303	     35.84467735	      1.56136610	     -8.63439536	     -8.15630938	    -12.90031280	      0.05524265	     13.97770872	      0.16719287	      0.61009984	     -5.41844796	    -17.37077369	     -2.63372798	     22.38278872	     19.50149570	     13.63851235	      1.64876199	     -9.04253736
      4.25000000	    -16.05173917	     -2.66079406	      5.57687336	     -0.27307954	     -0.02872127	      0.01122212	     35.52383691	      2.00006571	     -8.31820568	     -8.05865636	    -13.81570732	     -0.65895695	     13.43234946	      0.29107393	     -0.01041702	     -5.80913566	    -18.15181860	     -3.26762802	     23.08369102	     19.99806622	     13.76186218	      2.11644017	     -9.15522535
      4.25500000	    -16.02524910	     -3.07981463	      5.56570007	     -0.26648882	     -0.02860723	      0.01108828	     35.20130207	      2.50132802	     -7.84827137	     -8.00391835	    -14.66644226	     -1.49002749	     12.54553527	      0.41631902	     -0.66542576	     -6.28506366	    -18.95432536	     -3.99176836	     23.76172347	     20.56834515	     13.87740733	      2.63236718	     -9.18573596
      4.26000000	    -16.02989895	     -3.49893261	      5.63278688	     -0.25995060	     -0.02846016	      0.01091374	     34.93432828	      2.94850875	     -7.45164653	     -8.01898999	    -15.39555886	     -2.35175098	     11.56369919	      0.65086203	     -1.34195610	     -6.77174803	    -19.87044229	     -4.77251787	     24.52824103	     21.06258865	     14.02767996	      3.10814677	     -9.31541402
      4.26500000	    -16.02700629	     -3.91587108	      5.60938641	     -0.25323084	     -0.02824799	      0.01080540	     34.65667970	      3.45134209	     -6.93175084	     -8.07825068	    -15.96348799	     -3.27860635	     10.20266151	      0.85833056	     -2.03092576	     -7.34902455	    -20.75873474	     -5.73501090	     25.23452024	     21.64455687	     14.19811607	      3.61748150	     -9.31902843
      4.27000000	    -16.03886528	     -4.29881790	      5.66260326	     -0.24674695	     -0.02804247	      0.01067688	     34.44207401	      3.86170226	     -6.52758650	     -8.22588224	    -16.38732004	     -4.11806894	      9.02357694	      1.18547064	     -2.71461086	     -7.94859883	    -21.80082885	     -6.73012070	     26.05159248	     22.19374291	     14.34893997	      4.05686439	     -9.42897893
      4.27500000	    -16.04901882	     -4.68864414	      5.63045133	     -0.24005781	     -0.02777692	      0.01058779	     34.21535166	      4.32739471	     -6.06791410	     -8.39670938	    -16.63142939	     -4.92348825	      7.59176659	      1.49207727	     -3.42011849	     -8.63467064	    -22.80818354	     -7.95628503	     26.73849288	     22.89834100	     14.53183150	      4.53933350	     -9.42089021
      4.28000000	    -16.07434682	     -5.02100024	      5.64593777	     -0.23354323	     -0.02751461	      0.01058394	     34.04368092	      4.69918703	     -5.77313537	     -8.63295206	    -16.74290572	     -5.55521887	      6.60814574	      1.89403262	     -4.10488506	     -9.33384756	    -23.93028134	     -9.27233607	     27.56298915	     23.52960144	     14.70017830	      4.92033803	     -9.46238464
      4.28500000	    -16.10096509	     -5.37767801	      5.58103141	     -0.22686308	     -0.02721289	      0.01058476	     33.85453680	      5.13503731	     -5.44574852	     -8.86608103	    -16.68818438	     -6.07767519	      5.49238954	      2.29199392	     -4.83106046	    -10.12871551	    -25.02897154	    -10.84644108	     28.17198392	     24.41137659	     14.89901201	      5.36699320	     -9.42464219
      4.29000000	    -16.13640497	     -5.67126979	      5.54463028	     -0.22044100	     -0.02691677	      0.01069407	     33.70871974	      5.48433683	     -5.25311655	     -9.14593529	    -16.52241682	     -6.38263645	      4.81120081	      2.78186900	     -5.53282679	    -10.91356002	    -26.24713051	    -12.50476584	     28.91713169	     25.19028427	     15.05783545	      5.72003190	     -9.39822376
      4.29500000	    -16.17781952	     -5.97189782	      5.46128364	     -0.21398131	     -0.02659782	      0.01085154	     33.55817424	      5.86024760	     -5.09213202	     -9.41739169	    -16.25280135	     -6.51943564	      4.28694875	      3.29803302	     -6.26659215	    -11.73720198	    -27.48281074	    -14.36146358	     29.53607205	     26.05010164	     15.22838111	      6.09524950	     -9.33185899
      4.30000000	    -16.22788323	     -6.27561828	      5.34285974	     -0.20747490	     -0.02625149	      0.01105401	     33.40207055	      6.25749133	     -4.95441042	     -9.68356858	    -15.86657970	     -6.52527276	      3.78472845	      3.83614710	     -7.01788009	    -12.55208656	    -28.70579050	    -16.46209446	     29.93539977	     27.07093597	     15.41591273	      6.48396425	     -9.21744376
      4.30500000	    -16.27626971	     -6.54442982	      5.22576894	     -0.20122020	     -0.02590392	      0.01138441	     33.25975476	      6.61708765	     -4.86738439	     -9.96143132	    -15.44121064	     -6.36396562	      3.54459824	      4.44078931	     -7.76698719	    -13.29748812	    -30.02830424	    -18.58710309	     30.45479612	     27.85444355	     15.55209033	      6.81996497	     -9.10762426
